<svg xmlns="http://www.w3.org/2000/svg" width="1385" height="873" viewBox="0 0 1385 873">
    <g fill="none" fill-rule="evenodd" opacity=".07" transform="translate(-210)">
        <ellipse cx="514.037" cy="647.455" stroke="#FE4F20" stroke-width="3" rx="11.037" ry="11.455"/>
        <ellipse cx="1127.037" cy="475.455" stroke="#FE4F20" stroke-width="3" rx="11.037" ry="11.455"/>
        <ellipse cx="503.037" cy="91.455" stroke="#FE4F20" stroke-width="3" rx="11.037" ry="11.455"/>
        <ellipse cx="1582.037" cy="53.455" stroke="#FE4F20" stroke-width="3" rx="11.037" ry="11.455"/>
        <path fill="#40BE65" d="M1404.293 838c-8.338 5.163-10.97 16.317-5.847 25.19 5.124 8.875 16.1 12.172 24.74 7.533L1404.293 838z"/>
        <path fill="#0072CA" d="M716.893 320.552c8.337-5.163 10.97-16.316 5.846-25.19-5.123-8.875-16.099-12.171-24.739-7.533l18.893 32.723z"/>
        <path stroke="#FE4F20" stroke-width="3" d="M1384.893 199.754c-6.812-11.8-21.405-16.182-32.893-10.015"/>
        <path stroke="#78379D" stroke-width="3" d="M561.333 799.493c6.812-11.799 3.312-26.628-7.773-33.493"/>
        <ellipse cx="1104.797" cy="823.382" fill="#FFF" rx="22.073" ry="22.911"/>
        <ellipse cx="341.951" cy="382.305" fill="#FFF" rx="18.211" ry="18.901"/>
        <ellipse cx="1345.185" cy="580.481" fill="#FFF" rx="12.692" ry="13.174"/>
        <ellipse cx="706.161" cy="730.545" fill="#FFF" rx="12.692" ry="13.174"/>
        <ellipse cx="1478.64" cy="318.172" fill="#FFF" rx="12.692" ry="13.174"/>
        <path fill="#EDC054" d="M762 813l32.006 8.613-23.708 24.607zM1196 0l32.006 8.613-23.708 24.607z"/>
        <path stroke="#0072CA" stroke-width="3" d="M346.13 785l2.853 13.495 13.115-4.276 2.856 13.497 13.117-4.275 2.857 13.497"/>
        <path stroke="#EDC054" stroke-width="3" d="M852 652.569c4.689-1.257 6.369 5.013 11.058 3.756 4.69-1.257 3.01-7.526 7.701-8.783 4.691-1.257 6.37 5.013 11.062 3.756 4.691-1.257 3.012-7.527 7.703-8.784 4.691-1.257 6.371 5.013 11.062 3.756"/>
        <path fill="#40BE65" d="M302.272 570.987l14.661 3.367 4.779 14.708-9.883 11.34-14.66-3.366-4.78-14.707z"/>
        <path stroke="#EDC054" stroke-width="3" d="M1080.272 251.987l14.661 3.367 4.779 14.708-9.883 11.34-14.66-3.366-4.78-14.707zM1046.272 789.987l14.661 3.367 4.779 14.708-9.883 11.34-14.66-3.366-4.78-14.707z"/>
        <path stroke="#D4D4D4" stroke-linecap="square" stroke-width="3" d="M900.128 334.602l8.1-8.1-8.1 8.1-7.804-7.804 7.804 7.804zm0 0l-8.1 8.1 8.1-8.1 7.804 7.804-7.804-7.804z"/>
        <path fill="#FE4F20" d="M391.69 254.703c.678-.12 1.357-.27 2.035-.452 12.222-3.275 19.572-15.476 16.417-27.251L386 233.469l5.69 21.234z"/>
        <path stroke="#0072CA" stroke-width="3" d="M1401.128 621.411c3.263-1.884 7.494-.665 9.45 2.722 3.54 6.133-5.496 11.35-1.956 17.483 1.956 3.387 6.186 4.605 9.45 2.721"/>
        <path stroke="#40BE65" stroke-width="3" d="M1401.411 371.072c-1.884-3.264-.665-7.494 2.722-9.45 6.133-3.54 11.35 5.496 17.483 1.955 3.387-1.955 4.605-6.186 2.721-9.45M212.411 265.072c-1.884-3.264-.665-7.494 2.722-9.45 6.133-3.54 11.35 5.496 17.483 1.955 3.387-1.955 4.605-6.186 2.721-9.45M879.411 148.072c-1.884-3.264-.665-7.494 2.722-9.45 6.133-3.54 11.35 5.496 17.483 1.955 3.387-1.955 4.605-6.186 2.721-9.45M1241.23 721.618l8.544 32.024-33.165-8.228z"/>
    </g>
</svg>
